<svg width="24" height="24" viewBox="0 0 24 24" fill="none" xmlns="http://www.w3.org/2000/svg">
<g id="contactless-2">
<path id="Icon" d="M7.77463 9.98968C7.92211 10.6361 8 11.309 8 12.0001C8 12.6911 7.92211 13.364 7.77463 14.0104M10.75 8.42035C11.075 9.55745 11.249 10.7583 11.249 11.9997C11.249 13.2412 11.075 14.442 10.75 15.5791M13.999 6.85931C14.5129 8.48107 14.7901 10.2081 14.7901 11.9999C14.7901 13.7917 14.5129 15.5188 13.999 17.1405M21 11.9999C21 16.9705 16.9706 20.9999 12 20.9999C7.02944 20.9999 3 16.9705 3 11.9999C3 7.02938 7.02944 2.99994 12 2.99994C16.9706 2.99994 21 7.02938 21 11.9999Z" stroke="white" stroke-linecap="round" stroke-linejoin="round"/>
</g>
</svg>
