<svg width="58" height="26" viewBox="0 0 58 26" fill="none" xmlns="http://www.w3.org/2000/svg">
<path fill-rule="evenodd" clip-rule="evenodd" d="M49.6288 2.0091C49.6224 3.13795 50.525 4.05767 51.6411 4.05767C52.7582 4.05874 53.6641 3.14328 53.6619 2.01657C53.6598 0.907991 52.755 0.00213771 51.6486 3.78024e-06C50.5421 -0.00213015 49.6352 0.899455 49.6288 2.0091ZM4.60822 5.35083C6.82217 5.35083 7.5317 5.69759 7.5317 6.5565V7.43248H4.60822C2.97256 7.43248 2.46042 8.14308 2.46042 10.7198C2.46042 13.2965 2.97256 14.0071 4.60822 14.0071H7.5317V14.8831C7.5317 15.742 6.8211 16.0888 4.60822 16.0888C1.58551 16.0877 0 14.4691 0 10.7187C0 6.96835 1.58551 5.35083 4.60822 5.35083ZM4.22838 4.83869C4.02992 4.83869 3.91469 4.78961 3.71624 4.55808L2.32918 2.87334C2.26303 2.79118 2.26303 2.69196 2.26303 2.6258H3.22117C3.43563 2.6258 3.53485 2.67488 3.76638 2.87334L4.55914 3.55086L5.33589 2.87334C5.58343 2.67488 5.66665 2.6258 5.89711 2.6258H6.83817C6.83817 2.69196 6.83818 2.79118 6.77202 2.87334L5.38497 4.55808C5.18651 4.78961 5.07128 4.83869 4.85682 4.83869H4.22945H4.22838ZM8.35753 6.34204C8.35753 5.74774 8.62214 5.43405 9.23351 5.43405H15.2459V6.59064C15.2459 7.18494 14.9322 7.46662 14.3048 7.46662H10.7529V9.6635H14.6345V11.5627H10.7529V13.9911H15.328V15.1477C15.328 15.742 15.0143 16.0066 14.403 16.0066H9.23244C8.62107 16.0066 8.35647 15.6929 8.35647 15.0986V6.34204H8.35753ZM22.8939 6.52342C22.8939 5.58236 21.6711 5.35083 19.5404 5.35083L19.5425 5.3519C17.081 5.3519 15.9575 6.59064 15.9575 8.17615C15.9575 10.3499 17.7631 11.1275 19.1943 11.7439C20.1341 12.1486 20.9125 12.4838 20.9125 13.0991C20.9125 13.7094 20.4494 14.0071 19.5084 14.0071H15.9234V14.9162C15.9234 15.8242 17.4929 16.0888 19.3921 16.0888C22.4148 16.0888 23.4551 14.6516 23.4551 12.9668C23.4551 10.8083 21.6011 10.0602 20.1574 9.47757C19.2368 9.10608 18.483 8.8019 18.483 8.2423C18.483 7.71309 18.8469 7.43248 19.7719 7.43248H22.8939V6.52342ZM26.9739 10.3229L30.0468 5.87898C30.2943 5.49914 30.4266 5.43299 30.7403 5.43299H32.9543C32.9543 5.5813 32.9212 5.7136 32.806 5.87898L29.4034 10.5534L32.9713 15.5585C33.0535 15.6908 33.1196 15.8562 33.1196 16.0045H31.0049C30.5429 16.0045 30.3936 15.9714 30.0959 15.5254L26.9739 11.1316V16.0045H24.5786V6.34204C24.5786 5.74774 24.8432 5.43405 25.4546 5.43405H26.9739V10.3229ZM39.642 5.81283C39.5428 5.44899 39.3454 5.39991 38.9154 5.39991H36.6854C36.2565 5.39991 36.0581 5.44899 35.9588 5.81283L33.2498 15.6086C33.2167 15.774 33.2007 15.9063 33.2007 16.0055H35.0999C35.5299 16.0055 35.6622 15.9895 35.7444 15.6257L36.3387 13.3787H39.2291L39.8234 15.6257C39.9226 15.9895 40.0549 16.0055 40.4838 16.0055H42.383C42.383 15.9063 42.367 15.7569 42.334 15.6086L39.642 5.81283ZM38.7991 11.5616H36.7345L37.7257 7.87847H37.8079L38.7991 11.5616ZM38.1216 4.83869C38.336 4.83869 38.4523 4.82268 38.6668 4.59115H38.6657L40.1029 3.03872C40.2352 2.88934 40.2683 2.82319 40.2683 2.74104C40.2683 2.67488 40.2022 2.6258 40.0699 2.6258H39.1288C38.9303 2.6258 38.8151 2.67488 38.6166 2.90642L37.2296 4.59115C37.1634 4.67331 37.1634 4.77254 37.1634 4.83869H38.1216ZM45.4719 13.1653H54.906V11.8988H45.489C45.486 11.8405 45.4849 11.3512 45.4834 10.7002C45.4812 9.71877 45.4781 8.36999 45.4666 7.57652C45.4506 6.45087 46.2188 5.3551 47.6709 5.37964C50.317 5.42338 52.9663 5.42338 55.6123 5.37751C56.7529 5.35723 57.7911 6.1948 57.79 7.55731C57.79 7.64609 57.7898 7.7442 57.7895 7.84869C57.7892 7.96773 57.7889 8.09505 57.7889 8.2263H48.3452V9.46291L57.7889 9.46078L57.7891 9.71507V9.71743C57.7898 10.4795 57.7916 12.697 57.7889 13.8215C57.7847 15.1605 56.9268 16.0023 55.5718 16.0034H47.6976C46.3319 16.0034 45.4772 15.152 45.4719 13.7873V13.1653ZM1.84051 19.6332C2.77304 19.6332 3.40468 19.662 3.40468 20.1283V20.41H1.83091C1.39346 20.41 1.13098 20.5946 1.13098 20.8666C1.13098 21.2568 1.59207 21.4324 2.12029 21.6335C2.82857 21.9033 3.65755 22.219 3.65755 23.1595C3.65755 23.9566 3.14221 24.5882 1.66553 24.5882C0.80129 24.5882 0.00426786 24.5882 0.00426786 24.1411V23.8104H1.75302C2.33559 23.8104 2.58846 23.6354 2.58846 23.247C2.58846 22.9038 2.15033 22.7285 1.63828 22.5235C0.918346 22.2354 0.0522813 21.8889 0.0522813 20.9349C0.0522813 20.1187 0.712732 19.6332 1.84051 19.6332ZM4.34788 25.9977H5.3679V25.9966V23.9854C5.65918 24.2969 6.11584 24.5882 6.6888 24.5882C7.91368 24.5882 8.46743 23.6365 8.46743 22.1107C8.46743 20.5849 7.91261 19.6332 6.6888 19.6332C6.11584 19.6332 5.65918 19.9256 5.3679 20.2457V20.1102C5.3679 19.8765 5.242 19.6823 4.88243 19.6823H4.34788V25.9977ZM5.3679 20.7994C5.63037 20.5956 5.95153 20.4398 6.3303 20.4398V20.4409C7.11772 20.4409 7.409 21.0235 7.409 22.1118C7.409 23.2001 7.11772 23.773 6.3303 23.773C5.95046 23.773 5.63037 23.6173 5.3679 23.4135V20.7994ZM9.04999 22.1118C9.04999 20.7514 9.54506 19.6343 11.1871 19.6343C12.8292 19.6343 13.3243 20.7514 13.3243 22.1118C13.3243 23.4722 12.8292 24.5893 11.1871 24.5893C9.54506 24.5893 9.04999 23.4722 9.04999 22.1118ZM12.2754 22.1118C12.2754 20.9851 12.0226 20.363 11.1871 20.363C10.3517 20.363 10.1084 20.9851 10.1084 22.1118C10.1084 23.2385 10.3517 23.8605 11.1871 23.8605C12.0226 23.8605 12.2754 23.2481 12.2754 22.1118ZM14.8308 19.1285C14.9471 19.2555 15.0154 19.2939 15.1413 19.2939H15.1434H15.4155C15.5414 19.2939 15.6097 19.2544 15.726 19.1285L16.5518 18.1768C16.5902 18.1277 16.5902 18.069 16.5902 18.0306H16.1432C16.0162 18.0306 15.9575 18.0605 15.822 18.1768L15.2779 18.6335L14.7433 18.1768C14.6067 18.0594 14.5491 18.0306 14.4126 18.0306H13.9655C13.9655 18.0701 13.9655 18.1277 14.0146 18.1768L14.8308 19.1285ZM14.1309 19.6823V24.5402V24.5413H15.1509V20.9947C15.4422 20.7909 15.8017 20.6351 16.5497 20.6351H16.793V19.8776C16.793 19.6834 16.618 19.6343 16.443 19.6343C16.0546 19.6343 15.5489 19.7794 15.1509 20.2947C15.1317 19.9256 14.9962 19.6823 14.6654 19.6823H14.1309ZM18.2216 19.1766H17.2016V18.6132C17.2016 18.3027 17.3179 18.1277 17.6391 18.1277H18.2216V19.1766ZM17.2016 19.6823H17.7746C18.0957 19.6823 18.2216 19.8573 18.2216 20.1678V24.5402H17.2016V19.6823ZM21.6124 19.6823H20.5241V18.6143H20.2425C20.0579 18.6143 19.98 18.7018 19.8733 18.9055L19.5041 19.6834L18.8629 19.8776V20.4409H19.5041V23.2684C19.5041 23.9779 19.6012 24.5701 20.7087 24.5701C21.2625 24.5701 21.6124 24.4527 21.6124 24.0451V23.7922H20.9029C20.5732 23.7922 20.5241 23.6461 20.5241 23.2673V20.4398H21.6124V19.6823ZM25.6936 23.8115V24.0835C25.6936 24.4815 25.159 24.5893 23.9832 24.5893C22.3508 24.5893 21.8461 23.4722 21.8461 22.1118C21.8461 20.7514 22.3806 19.6343 23.9736 19.6343C25.2561 19.6343 25.9262 20.3726 25.9262 21.4705C25.9262 21.7138 25.9262 21.8984 25.8771 22.3839H22.9035C22.9035 23.4231 23.2918 23.8125 24.0985 23.8125H25.6914L25.6936 23.8115ZM24.8965 21.7031C24.9062 21.6156 24.9062 21.4407 24.9062 21.334C24.9062 20.8965 24.7216 20.362 23.9832 20.362C23.3036 20.362 22.944 20.7503 22.9045 21.7031H24.8965ZM26.704 24.5402H27.724V18.1277H27.1414C26.8203 18.1277 26.704 18.3027 26.704 18.6132V24.5402ZM28.7931 24.5402V19.6823H29.3277C29.6872 19.6823 29.8131 19.8669 29.8131 20.1005V20.2467C30.2314 19.8093 30.736 19.6343 31.2418 19.6343C32.2522 19.6343 32.7377 20.2467 32.7377 21.1408V24.5413H31.7177V21.1889C31.7177 20.6543 31.3773 20.4409 30.8331 20.4409C30.464 20.4409 30.0852 20.5967 29.8131 20.8005V24.5413H28.7931V24.5402ZM36.4688 24.1219C36.4688 24.3556 36.6044 24.5402 36.9543 24.5402H37.4889V21.159C37.4889 20.139 36.7793 19.6332 35.5747 19.6332C34.496 19.6332 33.9135 19.662 33.9135 20.1283V20.41H35.4094C36.0314 20.41 36.4688 20.5946 36.4688 21.207V21.6146C34.8855 21.6829 33.5539 22.0136 33.5539 23.2278C33.5539 24.0537 34.1269 24.5882 35.0498 24.5882C35.5064 24.5882 36.0506 24.4228 36.4688 23.9854V24.1219ZM34.6326 23.0827C34.6326 22.5098 35.1373 22.2473 36.4688 22.2281V23.4124C36.2256 23.6269 35.8564 23.7624 35.4968 23.7624C35.0018 23.7624 34.6326 23.5885 34.6326 23.0827Z" fill="white"/>
</svg>
